<?xml version="1.0" encoding="UTF-8"?>
<svg version="1.1" xmlns="http://www.w3.org/2000/svg" width="1024" height="1024">
<path d="M0 0 C337.92 0 675.84 0 1024 0 C1024 337.92 1024 675.84 1024 1024 C686.08 1024 348.16 1024 0 1024 C0 686.08 0 348.16 0 0 Z " fill="#F7EEE4" transform="translate(0,0)"/>
<path d="M0 0 C0.94141846 0.44617676 0.94141846 0.44617676 1.90185547 0.90136719 C26.57114278 12.78321606 47.62904795 32.11559776 61 56 C61.33773438 56.60295898 61.67546875 57.20591797 62.0234375 57.82714844 C66.27966266 65.54355664 69.68886894 73.3526946 72.375 81.75 C72.6136377 82.49330566 72.85227539 83.23661133 73.09814453 84.00244141 C76.52714971 95.33576221 77.36311287 106.44780272 77.3125 118.25 C77.31034485 118.93420013 77.3081897 119.61840027 77.30596924 120.32333374 C77.25438836 130.53053293 76.82267501 140.12600378 74 150 C73.81195801 150.68707031 73.62391602 151.37414062 73.43017578 152.08203125 C64.76213389 183.14079074 44.43282542 210.35152907 16.38720703 226.50488281 C4.97751228 232.89243663 -6.31796283 238.64564632 -19 242 C-19.76425293 242.21205078 -20.52850586 242.42410156 -21.31591797 242.64257812 C-50.45489173 250.6565094 -80.3210715 249.91133467 -110.23419189 247.85961914 C-121.38999641 247.10491204 -132.50642856 246.77640619 -143.6875 246.75 C-144.40908295 246.74500488 -145.13066589 246.74000977 -145.87411499 246.73486328 C-171.85655809 246.58585789 -198.21493048 252.43166498 -217.8046875 270.58203125 C-230.1504814 284.17997863 -237.95170471 303.26215428 -237.33984375 321.69140625 C-235.36853335 340.88335918 -228.27185713 357.17633893 -216 372 C-215.53464844 372.62777344 -215.06929687 373.25554687 -214.58984375 373.90234375 C-202.77798226 389.25415149 -181.93336688 399.90265526 -164 406 C-163.33000977 406.23058105 -162.66001953 406.46116211 -161.96972656 406.69873047 C-128.63053736 417.93920114 -90.55399913 414.32576635 -58.96923828 399.015625 C-35.1116434 386.88598701 -16.15835183 367.83812146 -1 346 C-0.03379384 344.63063341 0.93367575 343.26215748 1.90234375 341.89453125 C3.39476632 339.78430828 4.88527091 337.67286274 6.36987305 335.55712891 C20.17493696 315.89543871 34.49108673 296.35636081 50 278 C50.44230957 277.46890625 50.88461914 276.9378125 51.34033203 276.390625 C75.91586798 246.89001543 107.46586196 222.12082221 147 218 C158.70876191 217.48085706 170.52346573 217.42843342 182 220 C183.16144531 220.25652344 184.32289063 220.51304687 185.51953125 220.77734375 C207.44029257 226.12555044 225.97393736 236.14212692 242 252 C242.72574219 252.66515625 243.45148437 253.3303125 244.19921875 254.015625 C266.69469536 275.05265224 276.7366407 307.75835695 278.1262207 337.72167969 C279.20652201 377.0789424 268.59263567 415.20285608 242 445 C241.28328125 445.81339844 240.5665625 446.62679688 239.828125 447.46484375 C237.57280077 449.99608531 235.28826058 452.49852379 233 455 C232.21496094 455.87785156 231.42992187 456.75570313 230.62109375 457.66015625 C224.85966624 464.05490098 218.88861123 470.21587607 212.8125 476.3125 C212.06427979 477.0653125 211.31605957 477.818125 210.54516602 478.59375 C206.48099771 482.6467099 202.31897267 486.50142911 197.97143555 490.24682617 C194.49232689 493.34075549 191.25890643 496.67744306 188 500 C183.40997849 504.67967036 178.7487506 509.16275827 173.78125 513.44140625 C171.58299952 515.36487542 169.53344848 517.40398387 167.5 519.5 C164.11758601 522.9288279 160.61929558 526.12048518 156.96484375 529.25390625 C154.26621639 531.65209001 151.75685425 534.21611524 149.25 536.8125 C147.29546862 538.71273884 145.2994914 540.50252246 143.2421875 542.2890625 C139.10408331 545.88333439 135.10615941 549.60861624 131.125 553.375 C125.94662532 558.2522786 120.7379089 563.08402068 115.4296875 567.8203125 C112.55606467 570.39825709 109.71557214 573.01077354 106.875 575.625 C102.30786774 579.81975731 97.69722982 583.95151346 93 588 C91.96350409 588.90230058 90.92704944 589.80464857 89.890625 590.70703125 C78.78146273 600.34526106 67.31544411 609.3893914 55.4375 618.0625 C54.6753418 618.62316162 53.91318359 619.18382324 53.12792969 619.76147461 C49.53855384 622.35606461 46.26836288 624.6391952 42 626 C44.18047602 623.00184547 46.47970322 620.52207695 49.30859375 618.15625 C55.06152848 613.17485921 60.38607951 607.7632695 65.75463867 602.37573242 C67.55862085 600.56639067 69.36788665 598.76245681 71.17773438 596.95898438 C76.47022031 591.6692309 81.68373661 586.37947652 86.53881836 580.67944336 C88.88796062 577.97940165 91.4387371 575.49676456 94 573 C97.96663765 569.08746404 101.74585151 565.10438804 105.359375 560.859375 C107.16147789 558.81699172 109.05938947 556.91098289 111 555 C114.12025169 551.91540833 117.06363617 548.74909729 119.91796875 545.41796875 C121.52802548 543.54812801 123.15563298 541.70184781 124.80078125 539.86328125 C151.91397562 509.37364689 174.09835113 475.56596024 172.14355469 433.08300781 C170.81900367 413.86350221 162.08512435 396.09101035 148.18359375 382.83984375 C130.34051845 367.80569622 108.60136777 364.30599612 86 366 C53.55035674 369.92456883 25.89975762 392.03239893 6.11352539 416.86279297 C-13.18483048 442.14025237 -21.98933798 472.10780225 -22.22979546 503.65669632 C-22.2465218 505.78092446 -22.26977455 507.90499724 -22.29469299 510.02914429 C-22.36453684 516.06394326 -22.42468064 522.09881157 -22.47680664 528.13378906 C-22.73674184 557.43273089 -22.73674184 557.43273089 -23.890625 571.01171875 C-23.96433823 571.89119171 -24.03805145 572.77066467 -24.11399841 573.67678833 C-26.43582535 597.67187383 -36.54837364 622.52830463 -54.95703125 638.578125 C-68.51277966 649.08861542 -83.67480432 655.13266889 -101 654 C-104.59629034 653.51072 -108.09520287 652.7765449 -111.625 651.9375 C-112.57793945 651.71344482 -113.53087891 651.48938965 -114.51269531 651.25854492 C-154.8588411 641.30708094 -187.32857646 611.90159594 -215.89355469 583.20410156 C-217.13333506 581.96239624 -218.37334757 580.72092266 -219.61357117 579.47966003 C-222.25853649 576.83156257 -224.90194774 574.18192748 -227.54412079 571.53104401 C-231.72829074 567.33322165 -235.91638889 563.13933272 -240.1050415 558.94598389 C-248.98968155 550.05030259 -257.87005928 541.15037194 -266.75 532.25 C-276.35391649 522.62401157 -285.95858987 512.99878527 -295.56815076 503.37843108 C-299.72622586 499.21539584 -303.88185619 495.04994053 -308.03558397 490.88256788 C-310.62269683 488.2879646 -313.21190784 485.69546278 -315.8016758 483.1035099 C-316.99573528 481.90758829 -318.18893504 480.71080753 -319.3811779 479.51307487 C-325.41076483 473.45661325 -331.48489023 467.53979173 -338 462 C-371.29034639 431.11862667 -394.37015218 393.08275139 -402 348 C-402.17571533 346.98969727 -402.17571533 346.98969727 -402.35498047 345.95898438 C-411.11936869 293.29451783 -393.65677629 241.11418049 -364 198 C-359.54075342 191.83659878 -354.81105829 185.89094642 -350 180 C-349.50612793 179.39430176 -349.01225586 178.78860352 -348.50341797 178.16455078 C-337.82860218 165.15196877 -326.20236569 153.04484694 -314.296875 141.1640625 C-313.12235259 139.98886354 -311.94797839 138.81351643 -310.77374268 137.63803101 C-308.33840743 135.20123815 -305.9013158 132.76622026 -303.46289062 130.33251953 C-300.3576209 127.23297795 -297.25690756 124.12892296 -294.15748215 121.02353859 C-291.74335144 118.60577659 -289.32682236 116.19042299 -286.90958405 113.77576828 C-285.76552487 112.63236962 -284.62218976 111.48824594 -283.47963715 110.34334183 C-278.03178507 104.88672506 -272.57464798 99.5036123 -266.71075439 94.4883728 C-264.09580328 92.21334014 -261.68573473 89.77919746 -259.25 87.3125 C-258.74758789 86.80630127 -258.24517578 86.30010254 -257.72753906 85.77856445 C-256.14917288 84.1881815 -254.57414991 82.59455555 -253 81 C-241.22980073 69.07722408 -241.22980073 69.07722408 -234.890625 63.66796875 C-231.25321554 60.45893189 -227.89729646 56.959178 -224.5 53.5 C-219.74859172 48.66204512 -214.94156958 44.00830966 -209.79980469 39.5859375 C-207.35614728 37.43265501 -205.12236435 35.10575813 -202.875 32.75 C-196.76269251 26.50142741 -189.99386975 21.22032512 -183 16 C-182.15824219 15.36320312 -181.31648437 14.72640625 -180.44921875 14.0703125 C-128.19039627 -24.04788743 -57.63636123 -27.52824455 0 0 Z " fill="#D65B21" transform="translate(567,191)"/>
<path d="M0 0 C1.16144531 0.25652344 2.32289063 0.51304687 3.51953125 0.77734375 C25.44029257 6.12555044 43.97393736 16.14212692 60 32 C60.72574219 32.66515625 61.45148438 33.3303125 62.19921875 34.015625 C84.69469536 55.05265224 94.7366407 87.75835695 96.1262207 117.72167969 C97.20652201 157.0789424 86.59263567 195.20285608 60 225 C59.28328125 225.81339844 58.5665625 226.62679687 57.828125 227.46484375 C55.57280077 229.99608531 53.28826058 232.49852379 51 235 C50.21496094 235.87785156 49.42992187 236.75570312 48.62109375 237.66015625 C42.85966624 244.05490098 36.88861123 250.21587607 30.8125 256.3125 C30.06427979 257.0653125 29.31605957 257.818125 28.54516602 258.59375 C24.48099771 262.6467099 20.31897267 266.50142911 15.97143555 270.24682617 C12.49232689 273.34075549 9.25890643 276.67744306 6 280 C1.40997849 284.67967036 -3.2512494 289.16275827 -8.21875 293.44140625 C-10.41700048 295.36487542 -12.46655152 297.40398387 -14.5 299.5 C-17.88241399 302.9288279 -21.38070442 306.12048518 -25.03515625 309.25390625 C-27.73378361 311.65209001 -30.24314575 314.21611524 -32.75 316.8125 C-34.70453138 318.71273884 -36.7005086 320.50252246 -38.7578125 322.2890625 C-42.89591669 325.88333439 -46.89384059 329.60861624 -50.875 333.375 C-56.05337468 338.2522786 -61.2620911 343.08402068 -66.5703125 347.8203125 C-69.44393533 350.39825709 -72.28442786 353.01077354 -75.125 355.625 C-79.69213226 359.81975731 -84.30277018 363.95151346 -89 368 C-90.03649591 368.90230058 -91.07295056 369.80464857 -92.109375 370.70703125 C-103.21853727 380.34526106 -114.68455589 389.3893914 -126.5625 398.0625 C-127.3246582 398.62316162 -128.08681641 399.18382324 -128.87207031 399.76147461 C-132.46144616 402.35606461 -135.73163712 404.6391952 -140 406 C-137.81952398 403.00184547 -135.52029678 400.52207695 -132.69140625 398.15625 C-126.93847152 393.17485921 -121.61392049 387.7632695 -116.24536133 382.37573242 C-114.44137915 380.56639067 -112.63211335 378.76245681 -110.82226562 376.95898438 C-105.52977969 371.6692309 -100.31626339 366.37947652 -95.46118164 360.67944336 C-93.11203938 357.97940165 -90.5612629 355.49676456 -88 353 C-84.03336235 349.08746404 -80.25414849 345.10438804 -76.640625 340.859375 C-74.83852211 338.81699172 -72.94061053 336.91098289 -71 335 C-67.87974831 331.91540833 -64.93636383 328.74909729 -62.08203125 325.41796875 C-60.47197452 323.54812801 -58.84436702 321.70184781 -57.19921875 319.86328125 C-30.08602438 289.37364689 -7.90164887 255.56596024 -9.85644531 213.08300781 C-11.18099633 193.86350221 -19.91487565 176.09101035 -33.81640625 162.83984375 C-51.65948155 147.80569622 -73.39863223 144.30599612 -96 146 C-128.44964326 149.92456883 -156.10024238 172.03239893 -175.88647461 196.86279297 C-195.18483048 222.14025237 -203.98933798 252.10780225 -204.22979546 283.65669632 C-204.2465218 285.78092446 -204.26977455 287.90499724 -204.29469299 290.02914429 C-204.36453684 296.06394326 -204.42468064 302.09881157 -204.47680664 308.13378906 C-204.73674184 337.43273089 -204.73674184 337.43273089 -205.890625 351.01171875 C-205.96433823 351.89119171 -206.03805145 352.77066467 -206.11399841 353.67678833 C-208.04562941 373.63936619 -215.29900921 395.05346459 -229 410 C-229 406.64806213 -228.341972 405.51164802 -226.75 402.625 C-215.4853788 380.79979643 -216.3440994 353.15117288 -223.4765625 330.15234375 C-227.01321697 319.26090212 -231.4630808 309.01473712 -237 299 C-237.33725098 298.38350586 -237.67450195 297.76701172 -238.02197266 297.13183594 C-246.14809005 282.45314453 -256.42163794 269.28312299 -268.05078125 257.22265625 C-270 255 -270 255 -270 253 C-270.61875 252.7525 -271.2375 252.505 -271.875 252.25 C-274.40358627 250.76259631 -274.71839004 249.56321991 -276 247 C-276.57621094 246.73316406 -277.15242188 246.46632813 -277.74609375 246.19140625 C-280.77430678 244.59070439 -282.69935295 242.41201775 -285.0625 239.9375 C-290.37285101 234.49485634 -296.04758658 229.73452832 -302 225 C-303.20765954 224.00494236 -304.41327191 223.00739668 -305.6171875 222.0078125 C-323.18974426 207.46058391 -342.00797411 194.61094712 -361 182 C-357.20778503 180.73592834 -356.42875951 181.47185839 -352.875 183.125 C-319.42193706 197.57704524 -282.48267985 195.41445931 -248.80371094 182.50390625 C-221.31684964 171.33693481 -199.70540327 150.06690581 -183 126 C-182.03379384 124.63063341 -181.06632425 123.26215748 -180.09765625 121.89453125 C-178.60523368 119.78430828 -177.11472909 117.67286274 -175.63012695 115.55712891 C-161.82506304 95.89543871 -147.50891327 76.35636081 -132 58 C-131.55769043 57.46890625 -131.11538086 56.9378125 -130.65966797 56.390625 C-98.56987329 17.86985761 -52.24928581 -11.70758645 0 0 Z " fill="#313434" transform="translate(749,411)"/>
<path d="M0 0 C1.51170776 0.00737183 1.51170776 0.00737183 3.05395508 0.01489258 C22.56124056 0.32001175 40.17063151 6.91738221 54.4375 20.4375 C68.98058801 35.66423745 76.14439443 55.60487284 76.05297852 76.48754883 C75.01851308 119.90172725 48.61849666 152.65715368 20.75 183.3125 C19.986875 184.1684375 19.22375 185.024375 18.4375 185.90625 C14.54146416 190.27612804 10.58724336 194.52012668 6.41015625 198.62109375 C4.70986377 200.35339174 3.13666988 202.15272113 1.5625 204 C-1.9917606 208.13192824 -5.82318745 211.94681015 -9.72338867 215.7487793 C-12.35859234 218.33828326 -14.84869102 220.98179249 -17.2421875 223.796875 C-22.35162758 229.70124171 -27.93890888 235.15032351 -33.46630859 240.65917969 C-35.38105054 242.56853351 -37.29035321 244.48321071 -39.19921875 246.3984375 C-40.4267626 247.62532099 -41.65461639 248.85189447 -42.8828125 250.078125 C-43.44751251 250.64484924 -44.01221252 251.21157349 -44.59402466 251.79547119 C-47.67197554 254.85537515 -50.82840952 257.63172347 -54.25 260.3125 C-55.0646875 261.14394531 -55.879375 261.97539063 -56.71875 262.83203125 C-75.82128265 281.55133407 -106.9334899 288.81282652 -132.25 293.3125 C-133.3740625 293.51875 -134.498125 293.725 -135.65625 293.9375 C-153.85514064 295.83651468 -172.28421842 294.42089475 -190.25 291.3125 C-187.22514563 287.93366721 -184.11856761 287.39032214 -179.8125 286.5 C-161.11363411 282.15994355 -147.74819656 271.1650877 -137.45019531 255.27685547 C-128.4430589 240.53490682 -123.62724061 223.48281364 -122.15234375 206.35546875 C-122.06814682 205.37845505 -121.98394989 204.40144135 -121.89720154 203.39482117 C-120.65727111 187.37073109 -120.8608154 171.24661125 -120.79370117 155.18334961 C-120.57427319 107.36522197 -110.10651238 69.28101213 -75.875 34.5 C-55.44933957 14.26164712 -29.37774991 -0.17044183 0 0 Z " fill="#F3E3CF" transform="translate(664.25,555.6875)"/>
<path d="M0 0 C0 3 0 3 -1.96875 5.26171875 C-3.22171875 6.46248047 -3.22171875 6.46248047 -4.5 7.6875 C-5.3353125 8.49574219 -6.170625 9.30398438 -7.03125 10.13671875 C-8.00578125 11.05904297 -8.00578125 11.05904297 -9 12 C-8.01 12.33 -7.02 12.66 -6 13 C-5.21484375 15.2109375 -5.21484375 15.2109375 -5 18 C-6.81640625 20.2890625 -6.81640625 20.2890625 -9.5625 22.625 C-10.06064209 23.05321045 -10.55878418 23.4814209 -11.07202148 23.92260742 C-12.69720517 25.30435166 -14.34443596 26.65485422 -16 28 C-16.53109375 28.43618652 -17.0621875 28.87237305 -17.609375 29.32177734 C-24.73969802 35.14761469 -32.12813875 40.63274097 -39.5625 46.0625 C-40.70537476 46.90325073 -40.70537476 46.90325073 -41.87133789 47.76098633 C-45.46099004 50.35570875 -48.73134469 52.63910197 -53 54 C-50.81952398 51.00184547 -48.52029678 48.52207695 -45.69140625 46.15625 C-39.93847152 41.17485921 -34.61392049 35.7632695 -29.24536133 30.37573242 C-27.44137915 28.56639067 -25.63211335 26.76245681 -23.82226562 24.95898438 C-18.49015136 19.62966811 -13.22717091 14.30144458 -8.33569336 8.55834961 C-6.66696424 6.61144813 -4.89375004 4.79387759 -3.0625 3 C-2.47597656 2.4225 -1.88945313 1.845 -1.28515625 1.25 C-0.86105469 0.8375 -0.43695312 0.425 0 0 Z " fill="#272928" transform="translate(662,763)"/>
<path d="M0 0 C0.33 0 0.66 0 1 0 C1.33 4.62 1.66 9.24 2 14 C2.33 13.34 2.66 12.68 3 12 C3.99 12 4.98 12 6 12 C6.66 8.7 7.32 5.4 8 2 C8.33 2 8.66 2 9 2 C8.91827541 20.55148086 -0.20715838 39.12817718 -12 53 C-12 49.64806213 -11.341972 48.51164802 -9.75 45.625 C-2.41009526 31.29867035 -0.90258256 15.84269906 0 0 Z " fill="#1F2326" transform="translate(532,768)"/>
<path d="M0 0 C0.20537045 3.69666812 0.02656381 5.88737714 -2 9 C-4.13349764 10.98784322 -6.42786723 12.73920924 -8.75 14.5 C-9.3584375 14.97308594 -9.966875 15.44617188 -10.59375 15.93359375 C-14.29647634 18.78975659 -18.08006361 21.45083891 -22 24 C-22.66 23.34 -23.32 22.68 -24 22 C-20.90984779 18.86050859 -17.81325304 15.72756243 -14.71044922 12.60058594 C-13.65525491 11.5353174 -12.60186036 10.46826303 -11.55029297 9.39941406 C-10.04080273 7.86573784 -8.52501301 6.33854432 -7.0078125 4.8125 C-6.09660645 3.89082031 -5.18540039 2.96914063 -4.24658203 2.01953125 C-2 0 -2 0 0 0 Z " fill="#323433" transform="translate(648,782)"/>
<path d="M0 0 C4.457907 0.70705682 8.50388123 2.24330952 12.6875 3.875 C18.72349685 6.18898321 24.76039314 8.29010774 31 10 C31 10.33 31 10.66 31 11 C29.56260487 11.02712066 28.12506137 11.04645067 26.6875 11.0625 C25.48673828 11.07990234 25.48673828 11.07990234 24.26171875 11.09765625 C22 11 22 11 19 10 C22.59054233 13.88975419 26.73898882 16.89732195 31 20 C27.27537742 20 26.13921054 18.96730589 23.10546875 16.859375 C22.14962891 16.20066406 21.19378906 15.54195312 20.20898438 14.86328125 C19.21189453 14.16589844 18.21480469 13.46851563 17.1875 12.75 C15.22275427 11.39048333 13.25791315 10.03110451 11.29296875 8.671875 C10.37435059 8.03185547 9.45573242 7.39183594 8.50927734 6.73242188 C6.45771284 5.31600801 4.3911019 3.93606605 2.30078125 2.578125 C1.54152344 2.05734375 0.78226562 1.5365625 0 1 C0 0.67 0 0.34 0 0 Z " fill="#232A2E" transform="translate(388,592)"/>
<path d="M0 0 C0 3 0 3 -2.01953125 5.3125 C-2.94121094 6.199375 -3.86289062 7.08625 -4.8125 8 C-5.54496948 8.71542969 -5.54496948 8.71542969 -6.29223633 9.4453125 C-8.38405163 11.48799905 -10.49309189 13.51257646 -12.60058594 15.5390625 C-14.13559534 17.01996211 -15.66166383 18.5096601 -17.1875 20 C-18.10917969 20.886875 -19.03085937 21.77375 -19.98046875 22.6875 C-22.32889185 24.8649025 -22.32889185 24.8649025 -22 28 C-24.29943043 29.86242133 -26.55786137 31.53504905 -29 33.1875 C-29.66773438 33.65091797 -30.33546875 34.11433594 -31.0234375 34.59179688 C-32.67609867 35.73685497 -34.33727669 36.86960265 -36 38 C-36.66 37.67 -37.32 37.34 -38 37 C-37.18402344 36.25621094 -36.36804688 35.51242187 -35.52734375 34.74609375 C-23.32280681 23.52769324 -11.66963251 11.76848903 0 0 Z " fill="#141515" transform="translate(647,779)"/>
<path d="M0 0 C0.33 0 0.66 0 1 0 C1.33 4.62 1.66 9.24 2 14 C2.33 13.34 2.66 12.68 3 12 C3.99 12 4.98 12 6 12 C6.66 8.7 7.32 5.4 8 2 C8.33 2 8.66 2 9 2 C8.66476955 10.3639997 7.15526382 18.21304703 4 26 C3.34 26.33 2.68 26.66 2 27 C2.99 23.7 3.98 20.4 5 17 C4.34 17 3.68 17 3 17 C2.67 18.32 2.34 19.64 2 21 C1.67 20.34 1.34 19.68 1 19 C0.34 20.32 -0.32 21.64 -1 23 C-0.67 15.41 -0.34 7.82 0 0 Z " fill="#172126" transform="translate(532,768)"/>
<path d="M0 0 C1.32 0 2.64 0 4 0 C3.69106068 1.6256807 3.3777305 3.25052748 3.0625 4.875 C2.88847656 5.77992188 2.71445312 6.68484375 2.53515625 7.6171875 C1.59748896 11.79220245 -0.88407226 15.31419039 -3 19 C-4.01243785 15.96268644 -4.00685724 14.59613977 -3.625 11.5 C-3.53476562 10.7265625 -3.44453125 9.953125 -3.3515625 9.15625 C-2.80291183 5.79119256 -1.55243528 3.00137488 0 0 Z " fill="#383634" transform="translate(533,785)"/>
<path d="M0 0 C0.66 0.66 1.32 1.32 2 2 C-0.31 2 -2.62 2 -5 2 C-5 2.33 -5 2.66 -5 3 C-7.41696872 3.05411124 -9.83271787 3.09372278 -12.25 3.125 C-12.93191406 3.14175781 -13.61382813 3.15851563 -14.31640625 3.17578125 C-18.0608235 3.21213482 -20.82352727 3.07944349 -24 1 C-5.784909 -0.62169332 -5.784909 -0.62169332 0 0 Z " fill="#F6E6DB" transform="translate(529,438)"/>
<path d="M0 0 C4.86896303 0.59619955 9.32790951 1.56976822 14 3 C14 3.33 14 3.66 14 4 C9.38 4 4.76 4 0 4 C0 2.68 0 1.36 0 0 Z " fill="#212221" transform="translate(405,599)"/>
<path d="M0 0 C0.99 0.33 1.98 0.66 3 1 C0.14723863 3.93200474 -2.65079784 6.64315404 -6 9 C-4.47291037 5.56404834 -2.40072955 2.88087546 0 0 Z " fill="#202221" transform="translate(709,710)"/>
<path d="M0 0 C0 3.60573896 -0.81707462 4.41336566 -3 7.1875 C-3.556875 7.90292969 -4.11375 8.61835937 -4.6875 9.35546875 C-5.120625 9.89816406 -5.55375 10.44085937 -6 11 C-6 7.06845568 -4.74672985 4.4934597 -3 1 C-2.01 0.67 -1.02 0.34 0 0 Z " fill="#1E2020" transform="translate(574,604)"/>
<path d="M0 0 C0.99 0.33 1.98 0.66 3 1 C0.33333333 3.66666667 -2.33333333 6.33333333 -5 9 C-5.66 8.67 -6.32 8.34 -7 8 C-4.69 5.36 -2.38 2.72 0 0 Z " fill="#D24717" transform="translate(234,351)"/>
<path d="M0 0 C0.33 0.66 0.66 1.32 1 2 C-3.625 7.875 -3.625 7.875 -7 9 C-5.44499019 5.18315774 -2.96404505 2.80804268 0 0 Z " fill="#D14412" transform="translate(303,283)"/>
<path d="M0 0 C0.33 1.32 0.66 2.64 1 4 C-0.4375 6.25 -0.4375 6.25 -2 8 C-2.99 7.67 -3.98 7.34 -5 7 C-3.35 4.69 -1.7 2.38 0 0 Z " fill="#D24B19" transform="translate(203,390)"/>
<path d="M0 0 C0.66 0.33 1.32 0.66 2 1 C1.34 2.98 0.68 4.96 0 7 C-0.99 6.34 -1.98 5.68 -3 5 C-2.01 3.35 -1.02 1.7 0 0 Z " fill="#373939" transform="translate(646,784)"/>
<path d="M0 0 C-2.97 2.475 -2.97 2.475 -6 5 C-6.66 4.67 -7.32 4.34 -8 4 C-7 1 -7 1 -4.5625 -0.25 C-2 -1 -2 -1 0 0 Z " fill="#1A1B1B" transform="translate(639,796)"/>
</svg>
